<?xml version="1.0" encoding="utf-8"?>
<!-- Generator: Adobe Illustrator 19.0.0, SVG Export Plug-In . SVG Version: 6.00 Build 0)  -->
<svg version="1.1" id="Calque_1" xmlns="http://www.w3.org/2000/svg" xmlns:xlink="http://www.w3.org/1999/xlink" x="0px" y="0px"
	 viewBox="0 0 600 400" style="enable-background:new 0 0 600 400;" xml:space="preserve">
<style type="text/css">
	.st0{fill:#5FA9DE;}
	.st1{fill:#3D5A99;}
	.st2{fill:#D7E5F6;}
	.st3{fill:#4A4A4A;}
	.st4{fill:#141414;}
	.st5{fill:#04A2A5;}
	.st6{fill:#F59E0A;}
	.st7{fill:#35B399;}
	.st8{fill:#FFFFFF;}
	.st9{fill:#E7382C;}
	.st10{fill:#EE755D;}
	.st11{fill:#73C6EC;}
	.st12{fill:#CBCACA;}
	.st13{fill:#067A88;}
	.st14{fill:none;stroke:#067A88;stroke-width:4;stroke-miterlimit:10;}
	.st15{fill:#363636;stroke:#FFFFFF;stroke-width:0.5;stroke-miterlimit:10;}
	.st16{opacity:0.22;}
	.st17{fill:#B1C3E6;}
	.st18{fill:#2B3B4E;}
	.st19{fill:#B7B7B6;}
	.st20{fill:#DBDBDB;}
	.st21{fill:#6F6F6F;}
	.st22{fill:#313131;}
	.st23{fill:#E95C0C;}
	.st24{fill:#DE3F14;}
	.st25{fill:#919292;}
	.st26{fill:#F7B384;}
	.st27{fill:#EA542D;}
	.st28{fill:none;stroke:#FFFFFF;stroke-width:15;stroke-linecap:round;stroke-miterlimit:10;}
	.st29{fill:#AAAF18;}
	.st30{fill:none;stroke:#AAAF18;stroke-width:16;stroke-linecap:round;stroke-linejoin:round;stroke-miterlimit:10;}
	.st31{fill:#F6C5A2;}
	.st32{fill:#AF1920;}
	.st33{fill:#D11317;}
	.st34{fill:#5D556B;}
	.st35{fill:#AB8564;}
	.st36{fill:#3D5A99;stroke:#FFFFFF;stroke-width:2;stroke-miterlimit:10;}
	.st37{fill:none;stroke:#FFFFFF;stroke-miterlimit:10;}
	.st38{fill:#FFFFFF;stroke:#FFFFFF;stroke-miterlimit:10;}
	.st39{fill:#010202;}
	.st40{fill:#DD4F41;}
	.st41{fill:none;stroke:#FFFFFF;stroke-width:0.25;stroke-miterlimit:10;}
	.st42{fill:none;stroke:#FFFFFF;stroke-linecap:round;stroke-linejoin:round;stroke-miterlimit:10;}
</style>
<g id="XMLID_6_">
	<g id="XMLID_889_">
		<path id="XMLID_890_" class="st0" d="M334.7,91.3c3.1,8.2,6.5,20.3,3.6,28.3c0,0,15.5-10.2,23.5-22.3c0,0,1.4-13.8-10.7-14.8
			S334.7,91.3,334.7,91.3z"/>
	</g>
	<g id="XMLID_887_">
		<path id="XMLID_888_" class="st1" d="M265.3,89.3c-3.1,8.2-6.5,20.3-3.6,28.3c0,0-15.5-10.2-23.5-22.3c0,0-1.4-13.8,10.7-14.8
			S265.3,89.3,265.3,89.3z"/>
	</g>
	<g id="XMLID_885_">
		<path id="XMLID_886_" class="st1" d="M170.6,123.6c1.9,8.6,5.7,20.5,12.5,25.6c0,0-18.5,0-31.9-5.7c0,0-8.7-10.8,0.9-18.2
			C161.7,117.7,170.6,123.6,170.6,123.6z"/>
	</g>
	<g id="XMLID_883_">
		<path id="XMLID_884_" class="st0" d="M429.9,125.1c-1.9,8.6-5.7,20.5-12.5,25.6c0,0,18.5,0,31.9-5.7c0,0,8.7-10.8-0.9-18.2
			C438.8,119.2,429.9,125.1,429.9,125.1z"/>
	</g>
	<g id="XMLID_881_">
		<path id="XMLID_882_" class="st0" d="M481.4,200.5c-4.8,7.3-12.6,17.2-20.7,19.6c0,0,17.4,6.5,31.9,5.8c0,0,12-7,5.6-17.4
			C491.8,198.2,481.4,200.5,481.4,200.5z"/>
	</g>
	<g id="XMLID_734_">
		<g id="XMLID_735_">
			<g id="XMLID_772_">
				<g id="XMLID_879_">
					<path id="XMLID_880_" class="st2" d="M215.9,222.4v14.9c0,5.5,4.5,9.9,9.9,9.9h138.9c5.5,0,9.9-4.5,9.9-9.9v-14.9H215.9z"/>
				</g>
				<g id="XMLID_877_">
					<circle id="XMLID_878_" class="st3" cx="295.3" cy="234.8" r="5"/>
				</g>
				<g id="XMLID_873_">
					<path id="XMLID_874_" class="st4" d="M364.7,138c2.7,0,5,2.2,5,5v74.4H220.9V143c0-2.7,2.2-5,5-5H364.7 M364.7,133.1H225.8
						c-5.5,0-9.9,4.5-9.9,9.9v79.4h158.7V143C374.7,137.5,370.2,133.1,364.7,133.1L364.7,133.1z"/>
				</g>
				<g id="XMLID_871_">
					<path id="XMLID_872_" class="st5" d="M369.7,143c0-2.7-2.2-5-5-5H225.8c-2.7,0-5,2.2-5,5v74.4h148.8V143z"/>
				</g>
				<g id="XMLID_794_">
					<g id="XMLID_795_">
						<rect id="XMLID_870_" x="273.3" y="155" class="st3" width="71.2" height="52.6"/>
						<g id="XMLID_800_">
							<g id="XMLID_843_">
								<rect id="XMLID_867_" x="300.1" y="173.4" class="st6" width="30.1" height="2.7"/>
								<rect id="XMLID_864_" x="331.9" y="173.4" class="st7" width="8.3" height="2.7"/>
								<rect id="XMLID_863_" x="287" y="173.4" class="st8" width="11.4" height="2.7"/>
								<rect id="XMLID_860_" x="287" y="180.3" class="st9" width="8.7" height="2.7"/>
								<rect id="XMLID_857_" x="317.2" y="180.3" class="st10" width="13.9" height="2.7"/>
								<rect id="XMLID_854_" x="332.7" y="180.3" class="st10" width="7.4" height="2.7"/>
								<rect id="XMLID_851_" x="297.4" y="180.3" class="st6" width="18.2" height="2.7"/>
								<rect id="XMLID_848_" x="287" y="187.2" class="st11" width="17.8" height="2.7"/>
								<rect id="XMLID_845_" x="325.7" y="187.2" class="st11" width="9.6" height="2.7"/>
								<rect id="XMLID_844_" x="306.5" y="187.2" class="st8" width="17.5" height="2.7"/>
							</g>
							<g id="XMLID_834_">
								<g id="XMLID_257_">
									<rect id="XMLID_260_" x="294.6" y="164.3" class="st8" width="8.8" height="2.4"/>
									<polygon id="XMLID_259_" class="st8" points="291.7,170.4 286.8,165.5 291.7,160.6 293.4,162.3 290.2,165.5 293.4,168.7 
																			"/>
									<polygon id="XMLID_258_" class="st8" points="306.2,170.4 304.5,168.7 307.7,165.5 304.5,162.3 306.2,160.6 311.1,165.5 
																			"/>
								</g>
							</g>
							<g id="XMLID_825_">
								<g id="XMLID_252_">
									
										<rect id="XMLID_255_" x="297.3" y="194.9" transform="matrix(0.8571 0.5152 -0.5152 0.8571 145.3728 -125.3141)" class="st8" width="2.4" height="8.8"/>
									<polygon id="XMLID_254_" class="st8" points="291.7,204.3 286.8,199.4 291.7,194.5 293.4,196.2 290.2,199.4 293.4,202.5 
																			"/>
									<polygon id="XMLID_253_" class="st8" points="305.1,204.3 303.4,202.5 306.6,199.4 303.4,196.2 305.1,194.5 310,199.4 
																			"/>
								</g>
							</g>
							<rect id="XMLID_822_" x="282.6" y="157.1" class="st12" width="1.1" height="48.6"/>
							<rect id="XMLID_819_" x="277.9" y="160.7" class="st12" width="3.2" height="3.2"/>
							<rect id="XMLID_816_" x="277.9" y="167.1" class="st12" width="3.2" height="3.2"/>
							<rect id="XMLID_813_" x="277.9" y="173.4" class="st12" width="3.2" height="3.2"/>
							<rect id="XMLID_810_" x="277.9" y="179.8" class="st12" width="3.2" height="3.2"/>
							<rect id="XMLID_807_" x="277.9" y="186.1" class="st12" width="3.2" height="3.2"/>
							<rect id="XMLID_804_" x="277.9" y="192.5" class="st12" width="3.2" height="3.2"/>
							<rect id="XMLID_801_" x="277.9" y="198.9" class="st12" width="3.2" height="3.2"/>
						</g>
						<rect id="XMLID_799_" x="273.3" y="145.5" class="st13" width="71.2" height="9.5"/>
						<circle id="XMLID_798_" class="st8" cx="278" cy="150.2" r="2"/>
						<circle id="XMLID_797_" class="st8" cx="284.1" cy="150.2" r="2"/>
						<circle id="XMLID_796_" class="st8" cx="290.2" cy="150.2" r="2"/>
					</g>
				</g>
				<g id="XMLID_780_">
					<g id="XMLID_781_">
						<g id="XMLID_782_">
							<rect id="XMLID_793_" x="226.5" y="155.3" class="st8" width="33.8" height="51.6"/>
							<g id="XMLID_787_">
								<line id="XMLID_792_" class="st14" x1="268" y1="162.6" x2="234.2" y2="162.6"/>
								<line id="XMLID_791_" class="st14" x1="268" y1="170.6" x2="234.2" y2="170.6"/>
								<line id="XMLID_790_" class="st14" x1="268" y1="178.5" x2="234.2" y2="178.5"/>
								<line id="XMLID_789_" class="st14" x1="268" y1="186.5" x2="234.2" y2="186.5"/>
								<line id="XMLID_788_" class="st14" x1="268" y1="194.5" x2="234.2" y2="194.5"/>
							</g>
							<rect id="XMLID_786_" x="226.5" y="145.8" class="st13" width="33.8" height="9.5"/>
							<circle id="XMLID_785_" class="st8" cx="231.3" cy="150.6" r="2"/>
							<circle id="XMLID_784_" class="st8" cx="237.3" cy="150.6" r="2"/>
							<circle id="XMLID_783_" class="st8" cx="243.4" cy="150.6" r="2"/>
						</g>
					</g>
				</g>
				<g id="XMLID_778_">
					<path id="XMLID_779_" class="st15" d="M324.6,199.9l0,1.5l-0.1,8.1c0,0.7,0.7,1.2,1.4,0.9l2.5-1.1l1.2,2.7
						c0.2,0.5,0.7,0.7,1.1,0.7c0.2,0,0.3,0,0.5-0.1c0.6-0.3,0.9-1,0.6-1.6l-1.2-2.7l2.5-1.1c0.7-0.3,0.8-1.2,0.3-1.7l-6.5-5.9
						l-0.6-0.5C325.6,198.6,324.6,199.1,324.6,199.9z"/>
				</g>
				<g id="XMLID_776_" class="st16">
					<path id="XMLID_777_" class="st8" d="M321.1,217.4l1.5,5h52.1V143c0-5.5-4.5-9.9-9.9-9.9h-69.4l1.5,5L321.1,217.4z"/>
				</g>
				<g id="XMLID_774_">
					<polygon id="XMLID_775_" class="st17" points="315.1,257 275.4,257 280.4,247.2 310.2,247.2 					"/>
				</g>
				<path id="XMLID_773_" class="st2" d="M324.2,262.5h-59.5c-2.5,0-4.6-2.1-4.6-4.6s2.1-4.6,4.6-4.6h59.5c2.5,0,4.6,2.1,4.6,4.6
					S326.7,262.5,324.2,262.5z"/>
			</g>
			<g id="XMLID_763_">
				<g id="XMLID_764_">
					<g id="XMLID_765_">
						<polygon id="XMLID_771_" class="st3" points="432.3,206.9 434,205.9 407.2,168.4 404.2,170.5 430.1,206.8 421.3,258.5 
							425.4,259.2 434.3,207.3 						"/>
						<path id="XMLID_770_" class="st18" d="M436.7,262.4h-43.6v-1.6c0-3.1,2.5-5.5,5.5-5.5h32.6c3.1,0,5.5,2.5,5.5,5.5V262.4
							L436.7,262.4z"/>
						<g id="XMLID_768_">
							<circle id="XMLID_769_" class="st3" cx="432.2" cy="206.9" r="7.4"/>
						</g>
						<path id="XMLID_767_" class="st2" d="M397.5,180.6l-14.4-14.4l10.8-10.8c4-4,10.4-4,14.4,0l0,0c4,4,4,10.4,0,14.4L397.5,180.6
							z"/>
						<path id="XMLID_766_" class="st8" d="M391.1,200.6l9.9-15.8c4-6.4,3.1-14.5-2.2-19.8l0,0c-5.3-5.3-13.5-6.2-19.8-2.2
							l-15.8,9.9L391.1,200.6z"/>
					</g>
				</g>
			</g>
			<g id="XMLID_739_">
				<g id="XMLID_750_">
					<g id="XMLID_761_">
						<rect id="XMLID_762_" x="365.4" y="336" class="st19" width="78.9" height="8.8"/>
					</g>
					<g id="XMLID_759_">
						<rect id="XMLID_760_" x="365.4" y="336" class="st20" width="78.9" height="8.8"/>
					</g>
					<g id="XMLID_757_">
						<rect id="XMLID_758_" x="365.4" y="274.6" class="st19" width="78.9" height="8.8"/>
					</g>
					<g id="XMLID_755_">
						<rect id="XMLID_756_" x="365.4" y="274.6" class="st20" width="78.9" height="8.8"/>
					</g>
					<path id="XMLID_753_" class="st21" d="M365.4,344.8v50.9c0,2.4,2,4.4,4.4,4.4h70.2c2.4,0,4.4-2,4.4-4.4v-50.9H365.4z"/>
					<path id="XMLID_751_" class="st21" d="M365.4,283.4V336h78.9v-52.6H365.4z"/>
				</g>
				<polygon id="XMLID_749_" class="st22" points="172.3,300.9 171.3,318.4 365.4,318.4 365.4,300.9 				"/>
				<path id="XMLID_748_" class="st21" d="M158.7,272.4v123c0,2.2,1.8,4,4,4c2.2,0,4.1-1.8,4.2-4l7.2-123H158.7z"/>
				<polygon id="XMLID_747_" class="st20" points="158.7,280.3 173.6,280.3 174.1,272.4 158.7,272.4 				"/>
				<path id="XMLID_746_" class="st23" d="M444.5,276.5H155.8c-3.9,0-7.1-3.2-7.1-7.1c0-3.9,3.2-7.1,7.1-7.1h288.7
					c3.9,0,7.1,3.2,7.1,7.1C451.6,273.3,448.4,276.5,444.5,276.5z"/>
				<path id="XMLID_745_" class="st24" d="M451.6,269.4c0,3.9-3.2,7.1-7.1,7.1H155.8c-3.9,0-7.1-3.2-7.1-7.1"/>
				<rect id="XMLID_744_" x="387.3" y="287.8" class="st8" width="35.1" height="8.8"/>
				<rect id="XMLID_743_" x="387.3" y="296.5" class="st20" width="35.1" height="4.4"/>
				<rect id="XMLID_742_" x="387.3" y="366.7" class="st21" width="35.1" height="4.4"/>
				<rect id="XMLID_741_" x="387.3" y="357.9" class="st8" width="35.1" height="8.8"/>
				<rect id="XMLID_740_" x="358.3" y="300.9" class="st20" width="7.1" height="17.5"/>
			</g>
			<g id="XMLID_736_">
				<g id="XMLID_737_">
					<path id="XMLID_738_" class="st25" d="M288.3,312.1"/>
				</g>
			</g>
		</g>
	</g>
	<g id="XMLID_715_">
		<path id="XMLID_1185_" class="st26" d="M314.6,218.9v-6.4h-15v35.9h15v-7.5c6.1,0,11-4.9,11-11S320.7,218.9,314.6,218.9z
			 M314.6,237.4v-15c4.1,0,7.5,3.4,7.5,7.5S318.7,237.4,314.6,237.4z"/>
		<path id="XMLID_1188_" class="st8" d="M290.3,212.6h-5.8v35.9h15v-35.9h-5.8"/>
		<path id="XMLID_728_" class="st27" d="M308.1,219.4c-3-3.9-8.9-1.6-8.9,2.4c0-4-5.9-6.3-8.9-2.4c-3.1,4,0,11.1,8.9,15.1
			C308.2,230.5,311.2,223.4,308.1,219.4z"/>
		<g id="XMLID_716_">
			<path id="XMLID_725_" class="st22" d="M289.1,237.8h1.4c0.9,0,1.5,0,1.9,0.1c0.3,0.1,0.6,0.3,0.8,0.5c0.2,0.3,0.3,0.8,0.3,1.4
				c0,0.6-0.1,1-0.2,1.2s-0.4,0.3-0.9,0.4c0.4,0.1,0.6,0.2,0.8,0.4c0.1,0.2,0.2,0.3,0.2,0.4c0,0.1,0,0.5,0,1.1v2h-1.8v-2.5
				c0-0.4,0-0.7-0.1-0.7s-0.2-0.1-0.5-0.1v3.4h-2V237.8z M291,239.1v1.7c0.2,0,0.4,0,0.5-0.1c0.1-0.1,0.1-0.3,0.1-0.6v-0.4
				c0-0.2,0-0.4-0.1-0.5C291.4,239.2,291.2,239.1,291,239.1z"/>
			<path id="XMLID_723_" class="st22" d="M298.6,237.8v5c0,0.6,0,1-0.1,1.2c0,0.2-0.1,0.5-0.3,0.7c-0.2,0.2-0.4,0.4-0.7,0.6
				c-0.3,0.1-0.6,0.2-1.1,0.2c-0.4,0-0.8-0.1-1.2-0.2c-0.3-0.1-0.6-0.3-0.8-0.6c-0.2-0.2-0.3-0.5-0.3-0.8c0-0.3,0-0.8,0-1.7v-4.4h2
				v5.6c0,0.3,0,0.5,0.1,0.6c0,0.1,0.1,0.1,0.2,0.1c0.1,0,0.2,0,0.2-0.2c0-0.1,0.1-0.3,0.1-0.7v-5.5H298.6z"/>
			<path id="XMLID_719_" class="st22" d="M299.4,237.8h1.9c0.6,0,1.1,0,1.4,0.1c0.3,0.1,0.6,0.3,0.8,0.6c0.2,0.3,0.3,0.8,0.3,1.4
				c0,0.4-0.1,0.7-0.2,0.9c-0.1,0.2-0.4,0.3-0.8,0.4c0.5,0.1,0.8,0.3,0.9,0.5c0.2,0.2,0.2,0.6,0.2,1.1v0.7c0,0.5-0.1,0.9-0.2,1.1
				c-0.1,0.2-0.3,0.4-0.6,0.5c-0.3,0.1-0.8,0.1-1.6,0.1h-2.3V237.8z M301.3,239.1v1.7c0.1,0,0.1,0,0.2,0c0.2,0,0.3,0,0.4-0.1
				c0.1-0.1,0.1-0.4,0.1-0.8c0-0.2,0-0.4-0.1-0.5c0-0.1-0.1-0.2-0.2-0.2C301.6,239.1,301.5,239.1,301.3,239.1z M301.3,242v2.1
				c0.3,0,0.5-0.1,0.5-0.1c0.1-0.1,0.1-0.3,0.1-0.6v-0.7c0-0.3,0-0.5-0.1-0.6C301.8,242,301.6,242,301.3,242z"/>
			<path id="XMLID_717_" class="st22" d="M308.8,237.8l-1.4,4.8v2.7h-1.8v-2.7l-1.4-4.8h1.8c0.3,1.5,0.4,2.5,0.5,3
				c0.1-0.8,0.3-1.8,0.5-3H308.8z"/>
		</g>
	</g>
	<g id="XMLID_664_">
		<g id="XMLID_674_">
			<g id="XMLID_678_">
				<g id="XMLID_706_">
					<path id="XMLID_714_" class="st19" d="M235.7,360.7c-1.8,0-3.3-1.5-3.3-3.3v-13c0-1.8,1.5-3.3,3.3-3.3s3.3,1.5,3.3,3.3v13
						C239,359.2,237.5,360.7,235.7,360.7"/>
					<path id="XMLID_713_" class="st19" d="M235.7,380.5c-1.8,0-3.3-1.5-3.3-3.3v-13c0-1.8,1.5-3.3,3.3-3.3s3.3,1.5,3.3,3.3v13
						C239,379,237.5,380.5,235.7,380.5"/>
					<path id="XMLID_712_" class="st19" d="M186.8,380.3c-1.8,0-3.3-1.5-3.3-3.3v-6.5c0-1.8,1.5-3.3,3.3-3.3c1.8,0,3.3,1.5,3.3,3.3
						v6.5C190.1,378.8,188.6,380.3,186.8,380.3"/>
					<line id="XMLID_711_" class="st28" x1="219.2" y1="357.6" x2="205" y2="370.4"/>
					<line id="XMLID_710_" class="st28" x1="253.3" y1="357.6" x2="267.5" y2="370.4"/>
					<path id="XMLID_709_" class="st19" d="M186.8,373.7c-1.5,0-2.8-1-3.2-2.5c-0.4-1.8,0.7-3.5,2.4-3.9l42.4-9.8
						c1.7-0.4,3.5,0.7,3.9,2.4c0.4,1.8-0.7,3.5-2.4,3.9l-42.4,9.8C187.3,373.7,187.1,373.7,186.8,373.7"/>
					<path id="XMLID_708_" class="st19" d="M284.6,380.3c-1.8,0-3.3-1.5-3.3-3.3v-6.5c0-1.8,1.5-3.3,3.3-3.3c1.8,0,3.3,1.5,3.3,3.3
						v6.5C287.8,378.8,286.4,380.3,284.6,380.3"/>
					<path id="XMLID_707_" class="st19" d="M284.6,373.7c-0.2,0-0.5,0-0.7-0.1l-42.4-9.8c-1.8-0.4-2.8-2.2-2.4-3.9
						c0.4-1.8,2.2-2.8,3.9-2.4l42.4,9.8c1.8,0.4,2.8,2.2,2.4,3.9C287.4,372.7,286.1,373.7,284.6,373.7"/>
				</g>
				<g id="XMLID_685_">
					<g id="XMLID_701_">
						<g id="XMLID_702_">
							<g id="XMLID_703_">
								<path id="XMLID_705_" class="st29" d="M236.5,218.1v28.3h38C274.5,230.7,257.5,218.1,236.5,218.1z"/>
								<path id="XMLID_704_" class="st29" d="M198.5,246.3h38v-28.3C215.5,218.1,198.5,230.7,198.5,246.3z"/>
							</g>
						</g>
					</g>
					<ellipse id="XMLID_700_" class="st13" cx="235.7" cy="302.7" rx="34.7" ry="10.7"/>
					<path id="XMLID_699_" class="st30" d="M186.2,257.3l-0.9,10.7l15.3-33c1.7-3.6,5-6.2,9-6.8l17.4-2.8"/>
					<circle id="XMLID_696_" class="st31" cx="320.2" cy="238.3" r="11"/>
					<path id="XMLID_695_" class="st30" d="M318,244.6L286,268l-15.3-33c-1.7-3.6-5-6.2-9-6.8l-17.4-2.8"/>
					<path id="XMLID_692_" class="st32" d="M262.6,302.2h-54c-9.6,0-17.3-8-16.9-17.6l2.4-33.3c0.3-9.1,7.8-16.3,16.9-16.3h49.2
						c9.1,0,16.6,7.2,16.9,16.3l2.4,33.3C279.9,294.2,272.2,302.2,262.6,302.2"/>
					<path id="XMLID_691_" class="st33" d="M257.8,296.2h-44.4c-7.9,0-14.3-6.6-13.9-14.5l2-27.4c0.3-7.5,6.4-13.4,13.9-13.4h40.5
						c7.5,0,13.7,5.9,13.9,13.4l2,27.4C272.1,289.7,265.7,296.2,257.8,296.2"/>
					<polygon id="XMLID_690_" class="st13" points="224.8,355.7 213.3,355.7 205.3,312.2 224.8,312.2 					"/>
					<polygon id="XMLID_689_" class="st13" points="247.7,355.7 259.3,355.7 267.2,312.2 247.7,312.2 					"/>
					<path id="XMLID_688_" class="st33" d="M235.6,334.6c-13.2,0-42.4-2.9-42.4-14.5c0-5.7,5.4-8.7,10.6-8.7H268
						c4.5,0,10,3.1,10,8.7C278,331.7,248.7,334.6,235.6,334.6"/>
					<polygon id="XMLID_687_" class="st22" points="229.2,344.4 242.2,344.4 242.2,334.6 229.2,334.6 					"/>
					<path id="XMLID_686_" class="st34" d="M193.3,321.3c2,10.6,29.5,13.3,42.3,13.3c12.6,0,40.3-2.7,42.3-13.3H193.3z"/>
				</g>
				<g id="XMLID_683_">
					<polygon id="XMLID_684_" class="st19" points="229.2,367.2 242.2,367.2 242.2,357.5 229.2,357.5 					"/>
				</g>
				<g id="XMLID_679_">
					<path id="XMLID_682_" class="st22" d="M198.2,388.4c0,6.3-5.1,11.4-11.4,11.4s-11.4-5.1-11.4-11.4s5.1-11.4,11.4-11.4
						S198.2,382.1,198.2,388.4"/>
					<path id="XMLID_681_" class="st22" d="M297.6,388.4c0,6.3-5.1,11.4-11.4,11.4s-11.4-5.1-11.4-11.4s5.1-11.4,11.4-11.4
						C292.5,377,297.6,382.1,297.6,388.4"/>
					<path id="XMLID_680_" class="st22" d="M247.6,388.4c0,6.3-5.1,11.4-11.4,11.4s-11.4-5.1-11.4-11.4s5.1-11.4,11.4-11.4
						S247.6,382.1,247.6,388.4"/>
				</g>
			</g>
			<path id="XMLID_677_" class="st3" d="M235.6,319.2c-3.2,0-5.9-2.6-5.9-5.9v-29.2c0-3.2,2.6-5.9,5.9-5.9c3.2,0,5.9,2.6,5.9,5.9
				v29.2C241.4,316.6,238.8,319.2,235.6,319.2"/>
			<path id="XMLID_676_" class="st25" d="M235.6,319.2c-3.2,0-5.9-2.6-5.9-5.9v-29.2c0-3.2,2.6-5.9,5.9-5.9"/>
			<path id="XMLID_675_" class="st22" d="M249.1,273c0,7.2-5.8,13-13,13c-7.2,0-13-5.8-13-13s5.8-13,13-13
				C243.3,260,249.1,265.8,249.1,273"/>
		</g>
		<g id="XMLID_665_">
			<g id="XMLID_666_">
				<g id="XMLID_667_">
					<g id="XMLID_668_">
						<g id="XMLID_669_">
							<g id="XMLID_670_">
								<g id="XMLID_671_">
									<circle id="XMLID_673_" class="st31" cx="236.3" cy="177.1" r="41.6"/>
									<path id="XMLID_672_" class="st35" d="M236.5,124.3c-11.7,0-22.8,4.9-25.6,13.4c-21.1-0.3-17.2,29.3-16.2,34.1
										c0.4,2.2,1.2,4.9,2,7.7c1.2,4.1,3.9,7.5,7.4,9.7c3.5,10.6,16.6,18.5,32.2,18.5c15.7,0,28.9-8,32.3-18.7
										c3.3-2.2,5.9-5.5,7.1-9.5c0.8-2.8,1.6-5.6,2-7.7C278.8,165.5,289.6,124.3,236.5,124.3z"/>
								</g>
							</g>
						</g>
					</g>
				</g>
			</g>
		</g>
	</g>
	<g id="XMLID_7_">
		<g id="XMLID_533_">
			<g id="XMLID_584_">
				<path id="XMLID_663_" class="st1" d="M118.6,200.5c4.8,7.3,12.6,17.2,20.7,19.6c0,0-17.4,6.5-31.9,5.8c0,0-12-7-5.6-17.4
					C108.2,198.2,118.6,200.5,118.6,200.5z"/>
				<g id="XMLID_650_">
					<g id="XMLID_651_">
						<g id="XMLID_652_">
							<g id="XMLID_653_">
								<g id="XMLID_654_">
									<g id="XMLID_657_">
										<path id="XMLID_231_" class="st1" d="M71.6,237.3c-26.3,0-47.7-21.4-47.7-47.7c0-26.3,21.4-47.7,47.7-47.7
											s47.7,21.4,47.7,47.7C119.3,215.9,97.9,237.3,71.6,237.3z"/>
										<path id="XMLID_228_" class="st8" d="M71.6,142.9c25.8,0,46.7,20.9,46.7,46.7s-20.9,46.7-46.7,46.7s-46.7-20.9-46.7-46.7
											S45.8,142.9,71.6,142.9 M71.6,140.9c-26.9,0-48.7,21.8-48.7,48.7s21.8,48.7,48.7,48.7s48.7-21.8,48.7-48.7
											S98.4,140.9,71.6,140.9L71.6,140.9z"/>
									</g>
									<path id="XMLID_656_" class="st36" d="M71.6,236.3c-25.8,0-46.7-20.9-46.7-46.7s20.9-46.7,46.7-46.7"/>
									<path id="XMLID_655_" class="st0" d="M71.6,236.3c-25.8,0-46.7-20.9-46.7-46.7s20.9-46.7,46.7-46.7"/>
								</g>
							</g>
						</g>
					</g>
				</g>
				<g id="XMLID_637_">
					<g id="XMLID_638_">
						<g id="XMLID_639_">
							<g id="XMLID_640_">
								<g id="XMLID_641_">
									<g id="XMLID_644_">
										<path id="XMLID_226_" class="st1" d="M528.3,237.3c-26.3,0-47.7-21.4-47.7-47.7c0-26.3,21.4-47.7,47.7-47.7
											s47.7,21.4,47.7,47.7C576,215.9,554.6,237.3,528.3,237.3z"/>
										<path id="XMLID_223_" class="st8" d="M528.3,142.9c25.8,0,46.7,20.9,46.7,46.7s-20.9,46.7-46.7,46.7
											c-25.8,0-46.7-20.9-46.7-46.7S502.5,142.9,528.3,142.9 M528.3,140.9c-26.9,0-48.7,21.8-48.7,48.7s21.8,48.7,48.7,48.7
											s48.7-21.8,48.7-48.7S555.1,140.9,528.3,140.9L528.3,140.9z"/>
									</g>
									<path id="XMLID_643_" class="st36" d="M528.3,236.3c-25.8,0-46.7-20.9-46.7-46.7s20.9-46.7,46.7-46.7"/>
									<path id="XMLID_642_" class="st0" d="M528.3,236.3c-25.8,0-46.7-20.9-46.7-46.7s20.9-46.7,46.7-46.7"/>
								</g>
							</g>
						</g>
					</g>
				</g>
				<g id="XMLID_624_">
					<g id="XMLID_625_">
						<g id="XMLID_626_">
							<g id="XMLID_627_">
								<g id="XMLID_628_">
									<g id="XMLID_631_">
										<path id="XMLID_221_" class="st1" d="M130.7,147.1c-26.3,0-47.7-21.4-47.7-47.7s21.4-47.7,47.7-47.7s47.7,21.4,47.7,47.7
											S157,147.1,130.7,147.1z"/>
										<path id="XMLID_218_" class="st8" d="M130.7,52.7c25.8,0,46.7,20.9,46.7,46.7s-20.9,46.7-46.7,46.7S84,125.2,84,99.4
											S104.9,52.7,130.7,52.7 M130.7,50.7C103.8,50.7,82,72.5,82,99.4s21.8,48.7,48.7,48.7s48.7-21.8,48.7-48.7
											S157.5,50.7,130.7,50.7L130.7,50.7z"/>
									</g>
									<path id="XMLID_630_" class="st36" d="M130.7,146.1c-25.8,0-46.7-20.9-46.7-46.7s20.9-46.7,46.7-46.7"/>
									<path id="XMLID_629_" class="st0" d="M130.7,146.1c-25.8,0-46.7-20.9-46.7-46.7s20.9-46.7,46.7-46.7"/>
								</g>
							</g>
						</g>
					</g>
				</g>
				<g id="XMLID_611_">
					<g id="XMLID_612_">
						<g id="XMLID_613_">
							<g id="XMLID_614_">
								<g id="XMLID_615_">
									<g id="XMLID_618_">
										<path id="XMLID_216_" class="st1" d="M467.8,147.1c-26.3,0-47.7-21.4-47.7-47.7s21.4-47.7,47.7-47.7s47.7,21.4,47.7,47.7
											S494.1,147.1,467.8,147.1z"/>
										<path id="XMLID_213_" class="st8" d="M467.8,52.7c25.8,0,46.7,20.9,46.7,46.7s-20.9,46.7-46.7,46.7
											c-25.8,0-46.7-20.9-46.7-46.7S442,52.7,467.8,52.7 M467.8,50.7c-26.9,0-48.7,21.8-48.7,48.7s21.8,48.7,48.7,48.7
											s48.7-21.8,48.7-48.7S494.6,50.7,467.8,50.7L467.8,50.7z"/>
									</g>
									<path id="XMLID_617_" class="st36" d="M467.8,146.1c-25.8,0-46.7-20.9-46.7-46.7s20.9-46.7,46.7-46.7"/>
									<path id="XMLID_616_" class="st0" d="M467.8,146.1c-25.8,0-46.7-20.9-46.7-46.7s20.9-46.7,46.7-46.7"/>
								</g>
							</g>
						</g>
					</g>
				</g>
				<g id="XMLID_598_">
					<g id="XMLID_599_">
						<g id="XMLID_600_">
							<g id="XMLID_601_">
								<g id="XMLID_602_">
									<g id="XMLID_605_">
										<path id="XMLID_211_" class="st1" d="M234.5,96.7c-26.3,0-47.7-21.4-47.7-47.7c0-26.3,21.4-47.7,47.7-47.7
											c26.3,0,47.7,21.4,47.7,47.7C282.2,75.3,260.8,96.7,234.5,96.7z"/>
										<path id="XMLID_208_" class="st8" d="M234.5,2.3c25.8,0,46.7,20.9,46.7,46.7s-20.9,46.7-46.7,46.7S187.8,74.8,187.8,49
											S208.7,2.3,234.5,2.3 M234.5,0.3c-26.9,0-48.7,21.8-48.7,48.7s21.8,48.7,48.7,48.7s48.7-21.8,48.7-48.7
											S261.4,0.3,234.5,0.3L234.5,0.3z"/>
									</g>
									<path id="XMLID_604_" class="st36" d="M234.5,95.7c-25.8,0-46.7-20.9-46.7-46.7s20.9-46.7,46.7-46.7"/>
									<path id="XMLID_603_" class="st0" d="M234.5,95.7c-25.8,0-46.7-20.9-46.7-46.7s20.9-46.7,46.7-46.7"/>
								</g>
							</g>
						</g>
					</g>
				</g>
				<g id="XMLID_585_">
					<g id="XMLID_586_">
						<g id="XMLID_587_">
							<g id="XMLID_588_">
								<g id="XMLID_589_">
									<g id="XMLID_592_">
										<path id="XMLID_206_" class="st1" d="M362.2,96.7c-26.3,0-47.7-21.4-47.7-47.7c0-26.3,21.4-47.7,47.7-47.7
											s47.7,21.4,47.7,47.7C409.9,75.3,388.5,96.7,362.2,96.7z"/>
										<path id="XMLID_203_" class="st8" d="M362.2,2.3c25.8,0,46.7,20.9,46.7,46.7S388,95.7,362.2,95.7
											c-25.8,0-46.7-20.9-46.7-46.7S336.4,2.3,362.2,2.3 M362.2,0.3c-26.9,0-48.7,21.8-48.7,48.7s21.8,48.7,48.7,48.7
											c26.9,0,48.7-21.8,48.7-48.7S389,0.3,362.2,0.3L362.2,0.3z"/>
									</g>
									<path id="XMLID_591_" class="st36" d="M362.2,95.7c-25.8,0-46.7-20.9-46.7-46.7s20.9-46.7,46.7-46.7"/>
									<path id="XMLID_590_" class="st0" d="M362.2,95.7c-25.8,0-46.7-20.9-46.7-46.7s20.9-46.7,46.7-46.7"/>
								</g>
							</g>
						</g>
					</g>
				</g>
			</g>
			<g id="XMLID_534_">
				<polygon id="XMLID_583_" class="st8" points="73.5,219.9 56.5,219.9 56.5,217.3 50.5,221.7 56.5,226 56.5,223.5 73.5,223.5 				
					"/>
				<polygon id="XMLID_582_" class="st8" points="71.4,219.9 88.4,219.9 88.4,217.3 94.4,221.7 88.4,226 88.4,223.5 71.4,223.5 				
					"/>
				<polyline id="XMLID_581_" class="st37" points="66.4,210.4 72.4,221.6 78.3,210.4 				"/>
				<g id="XMLID_575_">
					<path id="XMLID_202_" class="st1" d="M72,229.2c-4.2,0-7.6-3.4-7.6-7.6c0-4.2,3.4-7.6,7.6-7.6s7.6,3.4,7.6,7.6
						C79.6,225.8,76.2,229.2,72,229.2z"/>
					<path id="XMLID_199_" class="st8" d="M72,214.5c3.9,0,7.1,3.2,7.1,7.1s-3.2,7.1-7.1,7.1s-7.1-3.2-7.1-7.1S68.1,214.5,72,214.5
						 M72,213.5c-4.5,0-8.1,3.6-8.1,8.1s3.6,8.1,8.1,8.1s8.1-3.6,8.1-8.1S76.5,213.5,72,213.5L72,213.5z"/>
				</g>
				<path id="XMLID_574_" class="st0" d="M72,228.7c-3.9,0-7.1-3.2-7.1-7.1s3.2-7.1,7.1-7.1"/>
				<g id="XMLID_561_">
					<g id="XMLID_567_">
						<path id="XMLID_193_" class="st8" d="M93.6,193.7c2.5,0,4.5,2,4.5,4.5v7.8c0,2.5-2,4.5-4.5,4.5H52.4c-2.5,0-4.5-2-4.5-4.5
							v-7.8c0-2.5,2-4.5,4.5-4.5H93.6 M93.6,192.7H52.4c-3,0-5.5,2.4-5.5,5.5v7.8c0,3,2.4,5.5,5.5,5.5h41.2c3,0,5.5-2.4,5.5-5.5
							v-7.8C99.1,195.2,96.6,192.7,93.6,192.7L93.6,192.7z"/>
					</g>
					<rect id="XMLID_564_" x="89" y="199.8" class="st8" width="4.8" height="4.5"/>
					<rect id="XMLID_563_" x="51.4" y="199.8" class="st8" width="25.2" height="4.5"/>
					<circle id="XMLID_562_" class="st8" cx="82.7" cy="202.1" r="3.6"/>
				</g>
				<g id="XMLID_548_">
					<g id="XMLID_554_">
						<path id="XMLID_181_" class="st8" d="M93.6,175.5c2.5,0,4.5,2,4.5,4.5v7.8c0,2.5-2,4.5-4.5,4.5H52.4c-2.5,0-4.5-2-4.5-4.5V180
							c0-2.5,2-4.5,4.5-4.5H93.6 M93.6,174.5H52.4c-3,0-5.5,2.4-5.5,5.5v7.8c0,3,2.4,5.5,5.5,5.5h41.2c3,0,5.5-2.4,5.5-5.5V180
							C99.1,177,96.6,174.5,93.6,174.5L93.6,174.5z"/>
					</g>
					<rect id="XMLID_551_" x="89" y="181.6" class="st8" width="4.8" height="4.5"/>
					<rect id="XMLID_550_" x="51.4" y="181.6" class="st8" width="25.2" height="4.5"/>
					<circle id="XMLID_549_" class="st8" cx="82.7" cy="183.9" r="3.6"/>
				</g>
				<g id="XMLID_535_">
					<g id="XMLID_541_">
						<path id="XMLID_115_" class="st8" d="M93.6,157.3c2.5,0,4.5,2,4.5,4.5v7.8c0,2.5-2,4.5-4.5,4.5H52.4c-2.5,0-4.5-2-4.5-4.5
							v-7.8c0-2.5,2-4.5,4.5-4.5H93.6 M93.6,156.3H52.4c-3,0-5.5,2.4-5.5,5.5v7.8c0,3,2.4,5.5,5.5,5.5h41.2c3,0,5.5-2.4,5.5-5.5
							v-7.8C99.1,158.8,96.6,156.3,93.6,156.3L93.6,156.3z"/>
					</g>
					<rect id="XMLID_538_" x="89" y="163.4" class="st8" width="4.8" height="4.5"/>
					<rect id="XMLID_537_" x="51.4" y="163.4" class="st8" width="25.2" height="4.5"/>
					<circle id="XMLID_536_" class="st8" cx="82.7" cy="165.7" r="3.6"/>
				</g>
			</g>
		</g>
		<g id="XMLID_491_">
			<g id="XMLID_497_">
				<g id="XMLID_507_">
					<g id="XMLID_527_">
						<path id="XMLID_182_" class="st8" d="M145.1,66.8l0.4,9.3h10.2v40.1c0,3.3-2.6,5.9-5.9,5.9h-31.7c-3.3,0-5.9-2.6-5.9-5.9V72.6
							c0-3.3,2.6-5.9,5.9-5.9H145.1 M145.1,65.8h-27c-3.8,0-6.9,3.1-6.9,6.9v43.5c0,3.8,3.1,6.9,6.9,6.9h31.7c3.8,0,6.9-3.1,6.9-6.9
							V76c0-0.6-0.4-1-1-1h-9.2l-0.4-8.3C146.1,66.2,145.6,65.8,145.1,65.8L145.1,65.8z"/>
					</g>
					<g id="XMLID_521_">
						<rect id="XMLID_526_" x="120" y="84.3" class="st8" width="29" height="3.2"/>
						<rect id="XMLID_525_" x="120" y="90.3" class="st8" width="29" height="3.2"/>
						<rect id="XMLID_524_" x="120" y="96.3" class="st8" width="29" height="3.2"/>
						<rect id="XMLID_523_" x="120" y="102.2" class="st8" width="29" height="3.2"/>
						<rect id="XMLID_522_" x="120" y="108.2" class="st8" width="29" height="3.2"/>
					</g>
					<g id="XMLID_515_">
						<g id="XMLID_185_">
							<path id="XMLID_186_" class="st1" d="M104.6,117.9c0.3,1.2,0.8,2.3,1.4,3.3l-1.7,2.1c-0.6,0.7-0.5,1.7,0.1,2.3l2.9,2.9
								c0.6,0.6,1.6,0.7,2.3,0.1l2.1-1.7c1.1,0.6,2.3,1.1,3.5,1.5l0.3,2.7c0.1,0.9,0.9,1.5,1.7,1.5h4.1c0.9,0,1.6-0.7,1.7-1.5
								l0.3-2.6c1.3-0.3,2.5-0.8,3.7-1.5l2.1,1.6c0.7,0.6,1.7,0.5,2.3-0.1l2.9-2.9c0.6-0.6,0.7-1.6,0.1-2.3l-1.6-2
								c0.7-1.1,1.2-2.4,1.5-3.7l2.5-0.3c0.9-0.1,1.5-0.9,1.5-1.7v-4.1c0-0.9-0.7-1.6-1.5-1.7l-2.4-0.3c-0.3-1.3-0.8-2.5-1.5-3.6
								l1.5-1.9c0.6-0.7,0.5-1.7-0.1-2.3l-2.9-2.9c-0.6-0.6-1.6-0.7-2.3-0.1l-1.8,1.5c-1.2-0.7-2.5-1.2-3.8-1.6l-0.3-2.4
								c-0.1-0.9-0.9-1.5-1.7-1.5h-4.1c-0.9,0-1.6,0.7-1.7,1.5l-0.3,2.4c-1.4,0.4-2.7,0.9-3.9,1.6l-1.9-1.5
								c-0.7-0.6-1.7-0.5-2.3,0.1l-2.9,2.9c-0.6,0.6-0.7,1.6-0.1,2.3l1.6,2c-0.6,1.1-1.1,2.4-1.4,3.6l-2.5,0.3
								c-0.9,0.1-1.5,0.9-1.5,1.7v4.1c0,0.9,0.7,1.6,1.5,1.7L104.6,117.9z"/>
						</g>
					</g>
					<path id="XMLID_514_" class="st0" d="M130.7,98.3c-0.5-0.1-1,0-1.4,0.3l-1.8,1.5c-1.2-0.7-2.5-1.2-3.8-1.6l-0.3-2.4
						c-0.1-0.9-0.9-1.5-1.7-1.5h-4.1c-0.9,0-1.6,0.7-1.7,1.5l-0.3,2.4c-1.4,0.4-2.7,0.9-3.9,1.6l-1.9-1.5c-0.7-0.6-1.7-0.5-2.3,0.1
						l-2.9,2.9c-0.6,0.6-0.7,1.6-0.1,2.3l1.6,2c-0.6,1.1-1.1,2.4-1.4,3.6l-2.5,0.3c-0.9,0.1-1.5,0.9-1.5,1.7v4.1
						c0,0.9,0.7,1.6,1.5,1.7l2.7,0.3c0.3,1.2,0.8,2.3,1.4,3.3l-1.7,2.1c-0.6,0.7-0.5,1.7,0.1,2.3l2.9,2.9c0.6,0.6,1.6,0.7,2.3,0.1
						l2.1-1.7c1.1,0.6,2.3,1.1,3.5,1.5l0.3,2.7c0.1,0.9,0.9,1.5,1.7,1.5h4.1c0.9,0,1.6-0.7,1.7-1.5l0.3-2.6c1.3-0.3,2.5-0.8,3.7-1.5
						l2.1,1.6c0.4,0.3,0.9,0.4,1.4,0.3V98.3z"/>
					<g id="XMLID_508_">
						<path id="XMLID_177_" class="st8" d="M121.6,94.6c0.9,0,1.6,0.7,1.7,1.5l0.3,2.4c1.3,0.4,2.6,0.9,3.8,1.6l1.8-1.5
							c0.3-0.3,0.7-0.4,1.1-0.4c0.4,0,0.9,0.2,1.2,0.5l2.9,2.9c0.6,0.6,0.7,1.6,0.1,2.3l-1.5,1.9c0.6,1.1,1.1,2.3,1.5,3.6l2.4,0.3
							c0.9,0.1,1.5,0.9,1.5,1.7v4.1c0,0.9-0.7,1.6-1.5,1.7l-2.5,0.3c-0.3,1.3-0.9,2.5-1.5,3.7l1.6,2c0.6,0.7,0.5,1.7-0.1,2.3
							l-2.9,2.9c-0.3,0.3-0.8,0.5-1.2,0.5c-0.4,0-0.8-0.1-1.1-0.4l-2.1-1.6c-1.2,0.7-2.4,1.2-3.7,1.5l-0.3,2.6
							c-0.1,0.9-0.9,1.5-1.7,1.5h-4.1c-0.9,0-1.6-0.7-1.7-1.5l-0.3-2.7c-1.2-0.3-2.4-0.8-3.5-1.5l-2.1,1.7c-0.3,0.3-0.7,0.4-1.1,0.4
							c-0.4,0-0.9-0.2-1.2-0.5l-2.9-2.9c-0.6-0.6-0.7-1.6-0.1-2.3l1.7-2.1c-0.6-1.1-1.1-2.2-1.4-3.3l-2.7-0.3
							c-0.9-0.1-1.5-0.9-1.5-1.7v-4.1c0-0.9,0.7-1.6,1.5-1.7l2.5-0.3c0.3-1.3,0.8-2.5,1.4-3.6l-1.6-2c-0.6-0.7-0.5-1.7,0.1-2.3
							l2.9-2.9c0.3-0.3,0.8-0.5,1.2-0.5c0.4,0,0.8,0.1,1.1,0.4l1.9,1.5c1.2-0.7,2.5-1.3,3.9-1.6l0.3-2.4c0.1-0.9,0.9-1.5,1.7-1.5
							H121.6 M121.6,93.6h-4.1c-1.4,0-2.6,1-2.7,2.4l-0.2,1.7c-1,0.3-2,0.7-2.9,1.2l-1.4-1.1c-0.5-0.4-1.1-0.6-1.7-0.6
							c-0.7,0-1.4,0.3-1.9,0.8l-2.9,2.9c-1,1-1.1,2.6-0.2,3.7l1.2,1.5c-0.4,0.8-0.8,1.7-1,2.6l-1.9,0.2c-1.4,0.2-2.4,1.3-2.4,2.7
							v4.1c0,1.4,1,2.6,2.4,2.7l2,0.2c0.3,0.8,0.6,1.6,1,2.3l-1.3,1.6c-0.9,1.1-0.8,2.7,0.2,3.6l2.9,2.9c0.5,0.5,1.2,0.8,1.9,0.8
							c0.6,0,1.2-0.2,1.7-0.6l1.6-1.3c0.8,0.4,1.6,0.8,2.4,1l0.2,2.1c0.2,1.4,1.3,2.4,2.7,2.4h4.1c1.4,0,2.6-1,2.7-2.4l0.2-2
							c0.9-0.3,1.8-0.6,2.7-1.1l1.5,1.2c0.5,0.4,1.1,0.6,1.7,0.6c0.7,0,1.4-0.3,1.9-0.8l2.9-2.9c1-1,1.1-2.6,0.2-3.7l-1.2-1.5
							c0.4-0.9,0.8-1.7,1.1-2.6l1.8-0.2c1.4-0.2,2.4-1.3,2.4-2.7v-4.1c0-1.4-1-2.6-2.4-2.7l-1.8-0.2c-0.3-0.9-0.6-1.7-1.1-2.6
							l1.1-1.4c0.9-1.1,0.8-2.7-0.2-3.6l-2.9-2.9c-0.5-0.5-1.2-0.8-1.9-0.8c-0.6,0-1.2,0.2-1.7,0.6l-1.3,1c-0.9-0.5-1.8-0.9-2.8-1.2
							l-0.2-1.7C124.2,94.7,123,93.6,121.6,93.6L121.6,93.6z"/>
					</g>
				</g>
				<g id="XMLID_501_">
					<path id="XMLID_111_" class="st8" d="M119.5,124c-5.8,0-10.5-4.7-10.5-10.5s4.7-10.5,10.5-10.5s10.5,4.7,10.5,10.5
						S125.3,124,119.5,124z"/>
					<path id="XMLID_106_" class="st8" d="M119.5,103.6c5.5,0,10,4.5,10,10c0,5.5-4.5,10-10,10c-5.5,0-10-4.5-10-10
						S114,103.6,119.5,103.6 M119.5,102.6c-6,0-11,4.9-11,11s4.9,11,11,11s11-4.9,11-11S125.6,102.6,119.5,102.6L119.5,102.6z"/>
				</g>
				<g id="XMLID_498_">
					<path id="XMLID_114_" class="st0" d="M119.5,108c3.1,0,5.5,2.5,5.5,5.5s-2.5,5.5-5.5,5.5c-3.1,0-5.5-2.5-5.5-5.5
						S116.5,108,119.5,108z"/>
				</g>
			</g>
			<g id="XMLID_492_">
				<path id="XMLID_103_" class="st8" d="M145.5,66.8l10.2,9.3h-10.2V66.8 M145.5,65.8c-0.1,0-0.3,0-0.4,0.1
					c-0.4,0.2-0.6,0.5-0.6,0.9V76c0,0.6,0.4,1,1,1h10.2c0.4,0,0.8-0.3,0.9-0.6c0.1-0.4,0-0.8-0.3-1.1L146.2,66
					C146,65.8,145.8,65.8,145.5,65.8L145.5,65.8z"/>
			</g>
		</g>
		<g id="XMLID_451_">
			<g id="XMLID_452_">
				<path id="XMLID_490_" class="st0" d="M203.1,27.9h56.5v36.8c0,1.8-1.5,3.3-3.3,3.3h-49.8c-1.8,0-3.3-1.5-3.3-3.3V27.9z"/>
				<path id="XMLID_487_" class="st37" d="M203.1,27.9h56.5v36.8c0,1.8-1.5,3.3-3.3,3.3h-49.8c-1.8,0-3.3-1.5-3.3-3.3V27.9z"/>
				<path id="XMLID_484_" class="st38" d="M203.1,24c0-1.8,1.5-3.3,3.3-3.3h49.8c1.8,0,3.3,1.5,3.3,3.3v3.9h-56.5V24z"/>
				<circle id="XMLID_481_" class="st0" cx="206.7" cy="24.3" r="1.5"/>
				<circle id="XMLID_480_" class="st0" cx="211.4" cy="24.3" r="1.5"/>
				<circle id="XMLID_479_" class="st0" cx="216" cy="24.3" r="1.5"/>
				<path id="XMLID_478_" class="st36" d="M210.4,37.4h56.5v36.8c0,1.8-1.5,3.3-3.3,3.3h-49.8c-1.8,0-3.3-1.5-3.3-3.3V37.4z"/>
				<path id="XMLID_475_" class="st0" d="M234.5,37.4h-24.1v36.8c0,1.8,1.5,3.3,3.3,3.3h20.8V37.4z"/>
				<path id="XMLID_474_" class="st37" d="M210.4,37.4h56.5v36.8c0,1.8-1.5,3.3-3.3,3.3h-49.8c-1.8,0-3.3-1.5-3.3-3.3V37.4z"/>
				<g id="XMLID_464_">
					<path id="XMLID_98_" class="st8" d="M209.9,37.9v-4.4c0-2.1,1.7-3.8,3.8-3.8h49.8c2.1,0,3.8,1.7,3.8,3.8v4.4H209.9z"/>
					<path id="XMLID_95_" class="st8" d="M263.6,30.2c1.8,0,3.3,1.5,3.3,3.3v3.9h-56.5v-3.9c0-1.8,1.5-3.3,3.3-3.3H263.6
						 M263.6,29.2h-49.8c-2.4,0-4.3,1.9-4.3,4.3v3.9v1h1h56.5h1v-1v-3.9C267.9,31.1,266,29.2,263.6,29.2L263.6,29.2z"/>
				</g>
				<circle id="XMLID_461_" class="st0" cx="214.1" cy="33.8" r="1.5"/>
				<circle id="XMLID_460_" class="st0" cx="218.7" cy="33.8" r="1.5"/>
				<circle id="XMLID_459_" class="st0" cx="223.4" cy="33.8" r="1.5"/>
				<path id="XMLID_457_" class="st8" d="M228.5,63.6c0.5,0.3,0.8,0.7,0.9,1.3c0,0.7-0.6,1.4-1.4,1.4c-0.4,0-0.8-0.2-1.1-0.4
					L216,58.7c-0.6-0.4-1-0.7-1-1.4c0-0.7,0.4-1.1,1-1.4l10.8-7.2c0.3-0.2,0.7-0.4,1.1-0.4c0.8,0,1.4,0.7,1.4,1.4
					c0,0.7-0.4,1.1-0.9,1.4l-9.4,6.2L228.5,63.6z"/>
				<path id="XMLID_455_" class="st8" d="M234.6,67.2c-0.3,0.6-0.6,0.9-1.3,0.9c-0.7,0-1.3-0.6-1.3-1.2c0-0.5,0.3-0.9,0.6-1.4
					l9.8-16.9c0.3-0.5,0.6-1,1.3-1c0.7,0,1.3,0.6,1.3,1.2c0,0.4-0.1,0.7-0.3,1L234.6,67.2z"/>
				<path id="XMLID_453_" class="st8" d="M257.9,57.3l-9.4-6.2c-0.5-0.3-0.9-0.7-0.9-1.4c0-0.7,0.6-1.4,1.4-1.4
					c0.4,0,0.8,0.2,1.1,0.4l10.8,7.2c0.6,0.4,1,0.7,1,1.4c0,0.8-0.4,1.1-1,1.4l-10.8,7.2c-0.3,0.2-0.7,0.4-1.1,0.4
					c-0.7,0-1.4-0.7-1.4-1.4c0-0.7,0.3-1,0.9-1.3L257.9,57.3z"/>
			</g>
		</g>
		<g id="XMLID_417_">
			<g id="XMLID_418_">
				<g id="XMLID_445_">
					<g id="XMLID_446_">
						<line id="XMLID_450_" class="st39" x1="331.7" y1="61.5" x2="331.7" y2="68.1"/>
						<path id="XMLID_447_" class="st8" d="M331.7,70.2c-1.1,0-2.1-0.9-2.1-2.1v-6.6c0-1.1,0.9-2.1,2.1-2.1 M333.8,63.6V66"/>
					</g>
				</g>
				<g id="XMLID_419_">
					<path id="XMLID_444_" class="st8" d="M366.3,21.3h-8.5c-3.4,0-6.2-2.8-6.2-6.2s2.8-6.2,6.2-6.2h8.5c3.4,0,6.2,2.8,6.2,6.2
						S369.8,21.3,366.3,21.3z"/>
					<path id="XMLID_443_" class="st8" d="M366.3,88.4h-8.5c-3.4,0-6.2-2.8-6.2-6.2c0-3.4,2.8-6.2,6.2-6.2h8.5
						c3.4,0,6.2,2.8,6.2,6.2C372.5,85.6,369.8,88.4,366.3,88.4z"/>
					<g id="XMLID_438_">
						
							<rect id="XMLID_442_" x="357.1" y="36.1" transform="matrix(0.7071 0.7071 -0.7071 0.7071 135.2462 -244.0795)" class="st8" width="10.2" height="10.2"/>
						<path id="XMLID_439_" class="st8" d="M362.3,50.5L362.3,50.5c-0.6,0-1.1-0.2-1.5-0.6l-7.2-7.2c-0.8-0.8-0.8-2.1,0-2.9l7.2-7.2
							c0.4-0.4,0.9-0.6,1.5-0.6c0.5,0,1.1,0.2,1.5,0.6l7.2,7.2c0.4,0.4,0.6,0.9,0.6,1.5c0,0.6-0.2,1.1-0.6,1.5l-7.2,7.2
							C363.3,50.3,362.8,50.5,362.3,50.5z M358,41.2l4.3,4.3l4.3-4.3l-4.3-4.3L358,41.2z"/>
					</g>
					<g id="XMLID_433_">
						<rect id="XMLID_437_" x="379.3" y="58.5" class="st8" width="17.5" height="6.6"/>
						<path id="XMLID_434_" class="st8" d="M396.8,67.2h-17.5c-1.1,0-2.1-0.9-2.1-2.1v-6.6c0-1.1,0.9-2.1,2.1-2.1h17.5
							c1.1,0,2.1,0.9,2.1,2.1v6.6C398.9,66.2,398,67.2,396.8,67.2z M381.4,63h13.3v-2.5h-13.3V63z"/>
					</g>
					<path id="XMLID_432_" class="st8" d="M387.8,83h-12.3c-0.5,0-0.9-0.4-0.9-0.9c0-0.5,0.4-0.9,0.9-0.9h11.3V63.5
						c0-0.5,0.4-0.9,0.9-0.9c0.5,0,0.9,0.4,0.9,0.9V82C388.8,82.6,388.4,83,387.8,83z"/>
					<path id="XMLID_431_" class="st8" d="M387.8,53.7c-0.5,0-0.9-0.4-0.9-0.9V42.2h-24.6c-0.5,0-0.9-0.4-0.9-0.9s0.4-0.9,0.9-0.9
						h25.6c0.5,0,0.9,0.4,0.9,0.9v11.5C388.8,53.3,388.4,53.7,387.8,53.7z"/>
					<polyline id="XMLID_430_" class="st8" points="390.7,51.3 387.8,55.2 385,51.3 					"/>
					<path id="XMLID_429_" class="st8" d="M362.5,29.8c-0.5,0-0.9-0.4-0.9-0.9V17.4c0-0.5,0.4-0.9,0.9-0.9c0.5,0,0.9,0.4,0.9,0.9
						v11.5C363.4,29.4,363,29.8,362.5,29.8z"/>
					<polyline id="XMLID_428_" class="st8" points="365.3,27.5 362.5,31.4 359.7,27.5 					"/>
					<polyline id="XMLID_427_" class="st8" points="378,84.8 374.1,82 378,79.2 					"/>
					<polyline id="XMLID_426_" class="st8" points="327.7,65.1 345.2,65.1 345.2,58.5 327.7,58.5 					"/>
					<path id="XMLID_425_" class="st8" d="M327.7,56.4h17.5c1.1,0,2.1,0.9,2.1,2.1v6.6c0,1.1-0.9,2.1-2.1,2.1h-17.5"/>
					<polyline id="XMLID_424_" class="st8" points="329.8,63 343.1,63 343.1,60.6 329.8,60.6 					"/>
					<path id="XMLID_423_" class="st8" d="M348.9,83h-12.3c-0.5,0-0.9-0.4-0.9-0.9V63.5c0-0.5,0.4-0.9,0.9-0.9
						c0.5,0,0.9,0.4,0.9,0.9v17.6h11.3c0.5,0,0.9,0.4,0.9,0.9C349.9,82.6,349.5,83,348.9,83z"/>
					<path id="XMLID_422_" class="st8" d="M336.7,53.7c-0.5,0-0.9-0.4-0.9-0.9V41.2c0-0.5,0.4-0.9,0.9-0.9h25.6
						c0.5,0,0.9,0.4,0.9,0.9s-0.4,0.9-0.9,0.9h-24.6v10.6C337.6,53.3,337.2,53.7,336.7,53.7z"/>
					<polyline id="XMLID_421_" class="st8" points="333.9,51.3 336.7,55.2 339.5,51.3 					"/>
					<polyline id="XMLID_420_" class="st8" points="346.5,84.8 350.4,82 346.5,79.2 					"/>
				</g>
			</g>
		</g>
		<g id="XMLID_273_">
			<g id="XMLID_274_">
				<g id="XMLID_412_">
					<path id="XMLID_91_" class="st8" d="M463.9,77.8c11.1,0,20.1,9,20.1,20.1s-9,20.1-20.1,20.1c-11.1,0-20.1-9-20.1-20.1
						S452.8,77.8,463.9,77.8 M463.9,76.8c-11.6,0-21.1,9.4-21.1,21.1s9.4,21.1,21.1,21.1s21.1-9.4,21.1-21.1S475.5,76.8,463.9,76.8
						L463.9,76.8z"/>
				</g>
				<g id="XMLID_406_">
					<path id="XMLID_90_" class="st0" d="M450.3,107.8c-8.3,0-17-1.8-17-5.1v-7.6c0-0.3,0.2-0.5,0.5-0.5h33c0.3,0,0.5,0.2,0.5,0.5
						v7.6C467.3,106.1,458.6,107.8,450.3,107.8z"/>
					<path id="XMLID_87_" class="st8" d="M466.8,95.2v7.6c0,2.5-7.4,4.6-16.5,4.6c-9.1,0-16.5-2-16.5-4.6v-7.6H466.8 M466.8,94.2
						h-33c-0.6,0-1,0.4-1,1v7.6c0,1.8,1.9,3.2,5.6,4.2c3.2,0.9,7.4,1.4,12,1.4c4.5,0,8.7-0.5,12-1.4c3.7-1,5.6-2.4,5.6-4.2v-7.6
						C467.8,94.6,467.4,94.2,466.8,94.2L466.8,94.2z"/>
				</g>
				<g id="XMLID_400_">
					<path id="XMLID_85_" class="st40" d="M450.3,100.2c-8.3,0-17-1.8-17-5.1c0-3.3,8.8-5.1,17-5.1s17,1.8,17,5.1
						C467.3,98.4,458.6,100.2,450.3,100.2z"/>
					<path id="XMLID_82_" class="st8" d="M450.3,90.6c9.1,0,16.5,2,16.5,4.6c0,2.5-7.4,4.6-16.5,4.6c-9.1,0-16.5-2-16.5-4.6
						C433.8,92.6,441.2,90.6,450.3,90.6 M450.3,89.6c-4.5,0-8.7,0.5-12,1.4c-3.7,1-5.6,2.4-5.6,4.2s1.9,3.2,5.6,4.2
						c3.2,0.9,7.4,1.4,12,1.4c4.5,0,8.7-0.5,12-1.4c3.7-1,5.6-2.4,5.6-4.2S466,92,462.3,91C459.1,90.1,454.8,89.6,450.3,89.6
						L450.3,89.6z"/>
				</g>
				<g id="XMLID_394_">
					<path id="XMLID_80_" class="st0" d="M450.3,100.2c-8.3,0-17-1.8-17-5.1v-7.6c0-0.3,0.2-0.5,0.5-0.5h33c0.3,0,0.5,0.2,0.5,0.5
						v7.6C467.3,98.4,458.6,100.2,450.3,100.2z"/>
					<path id="XMLID_77_" class="st8" d="M466.8,87.5v7.6c0,2.5-7.4,4.6-16.5,4.6c-9.1,0-16.5-2-16.5-4.6v-7.6H466.8 M466.8,86.5
						h-33c-0.6,0-1,0.4-1,1v7.6c0,1.8,1.9,3.2,5.6,4.2c3.2,0.9,7.4,1.4,12,1.4c4.5,0,8.7-0.5,12-1.4c3.7-1,5.6-2.4,5.6-4.2v-7.6
						C467.8,87,467.4,86.5,466.8,86.5L466.8,86.5z"/>
				</g>
				<g id="XMLID_388_">
					<path id="XMLID_75_" class="st40" d="M450.3,92.6c-8.3,0-17-1.8-17-5.1c0-3.3,8.8-5.1,17-5.1s17,1.8,17,5.1
						C467.3,90.8,458.6,92.6,450.3,92.6z"/>
					<path id="XMLID_72_" class="st8" d="M450.3,83c9.1,0,16.5,2,16.5,4.6c0,2.5-7.4,4.6-16.5,4.6c-9.1,0-16.5-2-16.5-4.6
						C433.8,85,441.2,83,450.3,83 M450.3,82c-4.5,0-8.7,0.5-12,1.4c-3.7,1-5.6,2.4-5.6,4.2s1.9,3.2,5.6,4.2c3.2,0.9,7.4,1.4,12,1.4
						c4.5,0,8.7-0.5,12-1.4c3.7-1,5.6-2.4,5.6-4.2s-1.9-3.2-5.6-4.2C459.1,82.5,454.8,82,450.3,82L450.3,82z"/>
				</g>
				<g id="XMLID_382_">
					<path id="XMLID_70_" class="st0" d="M450.3,92.6c-8.3,0-17-1.8-17-5.1v-7.6c0-0.3,0.2-0.5,0.5-0.5h33c0.3,0,0.5,0.2,0.5,0.5
						v7.6C467.3,90.8,458.6,92.6,450.3,92.6z"/>
					<path id="XMLID_59_" class="st8" d="M466.8,79.9v7.6c0,2.5-7.4,4.6-16.5,4.6c-9.1,0-16.5-2-16.5-4.6v-7.6H466.8 M466.8,78.9
						h-33c-0.6,0-1,0.4-1,1v7.6c0,1.8,1.9,3.2,5.6,4.2c3.2,0.9,7.4,1.4,12,1.4c4.5,0,8.7-0.5,12-1.4c3.7-1,5.6-2.4,5.6-4.2v-7.6
						C467.8,79.4,467.4,78.9,466.8,78.9L466.8,78.9z"/>
				</g>
				<g id="XMLID_376_">
					<path id="XMLID_57_" class="st40" d="M450.3,85c-8.3,0-17-1.8-17-5.1s8.8-5.1,17-5.1s17,1.8,17,5.1S458.6,85,450.3,85z"/>
					<path id="XMLID_53_" class="st8" d="M450.3,75.4c9.1,0,16.5,2,16.5,4.6c0,2.5-7.4,4.6-16.5,4.6c-9.1,0-16.5-2-16.5-4.6
						C433.8,77.4,441.2,75.4,450.3,75.4 M450.3,74.4c-4.5,0-8.7,0.5-12,1.4c-3.7,1-5.6,2.4-5.6,4.2s1.9,3.2,5.6,4.2
						c3.2,0.9,7.4,1.4,12,1.4c4.5,0,8.7-0.5,12-1.4c3.7-1,5.6-2.4,5.6-4.2s-1.9-3.2-5.6-4.2C459.1,74.8,454.8,74.4,450.3,74.4
						L450.3,74.4z"/>
				</g>
				<g id="XMLID_370_">
					<path id="XMLID_51_" class="st0" d="M450.3,85c-8.3,0-17-1.8-17-5.1v-7.6c0-0.3,0.2-0.5,0.5-0.5h33c0.3,0,0.5,0.2,0.5,0.5v7.6
						C467.3,83.2,458.6,85,450.3,85z"/>
					<path id="XMLID_33_" class="st8" d="M466.8,72.3v7.6c0,2.5-7.4,4.6-16.5,4.6c-9.1,0-16.5-2-16.5-4.6v-7.6H466.8 M466.8,71.3
						h-33c-0.6,0-1,0.4-1,1v7.6c0,1.8,1.9,3.2,5.6,4.2c3.2,0.9,7.4,1.4,12,1.4c4.5,0,8.7-0.5,12-1.4c3.7-1,5.6-2.4,5.6-4.2v-7.6
						C467.8,71.8,467.4,71.3,466.8,71.3L466.8,71.3z"/>
				</g>
				<g id="XMLID_364_">
					<path id="XMLID_30_" class="st0" d="M450.3,77.4c-8.3,0-17-1.8-17-5.1s8.8-5.1,17-5.1s17,1.8,17,5.1S458.6,77.4,450.3,77.4z"/>
					<path id="XMLID_27_" class="st8" d="M450.3,67.7c9.1,0,16.5,2,16.5,4.6c0,2.5-7.4,4.6-16.5,4.6c-9.1,0-16.5-2-16.5-4.6
						C433.8,69.8,441.2,67.7,450.3,67.7 M450.3,66.7c-4.5,0-8.7,0.5-12,1.4c-3.7,1-5.6,2.4-5.6,4.2s1.9,3.2,5.6,4.2
						c3.2,0.9,7.4,1.4,12,1.4c4.5,0,8.7-0.5,12-1.4c3.7-1,5.6-2.4,5.6-4.2s-1.9-3.2-5.6-4.2C459.1,67.2,454.8,66.7,450.3,66.7
						L450.3,66.7z"/>
				</g>
				<g id="XMLID_277_">
					<g id="XMLID_356_">
						<g id="XMLID_357_">
							<path id="XMLID_361_" class="st39" d="M507.4,118.2c0,0-0.1-0.1-0.1-0.1h-37.8c-0.1,0-0.1,0-0.1,0.1c0,0-0.1,0.1,0,0.2
								c0,0,0.6,3.5,5,3.5h28.2c4.4,0,5-3.5,5-3.5C507.4,118.3,507.4,118.2,507.4,118.2z M491.2,120.7h-5.7v-1.3h5.7V120.7z"/>
							<path id="XMLID_358_" class="st39" d="M473.4,116.8h29.9c0.4,0,0.8-0.4,0.8-0.8V97.6c0-0.4-0.4-0.8-0.8-0.8h-29.9
								c-0.4,0-0.8,0.4-0.8,0.8V116C472.6,116.4,473,116.8,473.4,116.8z M475.3,99.6h26V114h-26V99.6z"/>
						</g>
					</g>
					<g id="XMLID_279_">
						<g id="XMLID_154_">
							<g id="XMLID_155_">
								<g id="XMLID_162_">
									<g id="XMLID_167_">
										<path id="XMLID_168_" class="st39" d="M474.3,122.4c-4.1,0-5.3-2.9-5.5-4c0-0.2,0-0.4,0.2-0.6c0.1-0.2,0.3-0.2,0.5-0.2
											h37.8c0.2,0,0.4,0.1,0.5,0.2c0.1,0.2,0.2,0.4,0.2,0.6c0,0.2-0.7,4-5.5,4H474.3z M490.7,120.2v-0.3H486v0.3H490.7z"/>
									</g>
									<path id="XMLID_163_" class="st39" d="M507.2,118.1c0.1,0,0.1,0,0.1,0.1s0.1,0.1,0,0.2c0,0-0.6,3.5-5,3.5h-28.2
										c-4.4,0-5-3.5-5-3.5c0-0.1,0-0.1,0-0.2c0,0,0.1-0.1,0.1-0.1H507.2 M485.5,120.7h5.7v-1.3h-5.7V120.7 M507.2,117.1h-37.8
										c-0.3,0-0.7,0.2-0.9,0.4c-0.2,0.3-0.3,0.6-0.3,1c0.2,1.5,1.8,4.4,6,4.4h28.2c5.2,0,6-4.2,6-4.4c0.1-0.4,0-0.7-0.3-1
										C507.9,117.3,507.6,117.1,507.2,117.1L507.2,117.1z"/>
								</g>
								<g id="XMLID_156_">
									<g id="XMLID_160_">
										<path id="XMLID_161_" class="st39" d="M473.4,117.3c-0.7,0-1.3-0.6-1.3-1.3V97.6c0-0.7,0.6-1.3,1.3-1.3h29.9
											c0.7,0,1.3,0.6,1.3,1.3V116c0,0.7-0.6,1.3-1.3,1.3H473.4z"/>
									</g>
									<path id="XMLID_157_" class="st39" d="M503.3,96.8c0.4,0,0.8,0.4,0.8,0.8V116c0,0.4-0.4,0.8-0.8,0.8h-29.9
										c-0.4,0-0.8-0.4-0.8-0.8V97.6c0-0.4,0.4-0.8,0.8-0.8H503.3 M503.3,95.8h-29.9c-1,0-1.8,0.8-1.8,1.8V116
										c0,1,0.8,1.8,1.8,1.8h29.9c1,0,1.8-0.8,1.8-1.8V97.6C505.1,96.6,504.3,95.8,503.3,95.8L503.3,95.8z"/>
								</g>
							</g>
						</g>
						<g id="XMLID_137_">
							<g id="XMLID_138_">
								<g id="XMLID_145_">
									<g id="XMLID_150_">
										<path id="XMLID_151_" class="st1" d="M474.3,122.4c-4.1,0-5.3-2.9-5.5-4c0-0.2,0-0.4,0.2-0.6c0.1-0.2,0.3-0.2,0.5-0.2
											h37.8c0.2,0,0.4,0.1,0.5,0.2c0.1,0.2,0.2,0.4,0.2,0.6c0,0.2-0.7,4-5.5,4H474.3z M490.7,120.2v-0.3H486v0.3H490.7z"/>
									</g>
									<path id="XMLID_146_" class="st8" d="M507.2,118.1c0.1,0,0.1,0,0.1,0.1s0.1,0.1,0,0.2c0,0-0.6,3.5-5,3.5h-28.2
										c-4.4,0-5-3.5-5-3.5c0-0.1,0-0.1,0-0.2c0,0,0.1-0.1,0.1-0.1H507.2 M485.5,120.7h5.7v-1.3h-5.7V120.7 M507.2,117.1h-37.8
										c-0.3,0-0.7,0.2-0.9,0.4c-0.2,0.3-0.3,0.6-0.3,1c0.2,1.5,1.8,4.4,6,4.4h28.2c5.2,0,6-4.2,6-4.4c0.1-0.4,0-0.7-0.3-1
										C507.9,117.3,507.6,117.1,507.2,117.1L507.2,117.1z"/>
								</g>
								<g id="XMLID_139_">
									<g id="XMLID_143_">
										<path id="XMLID_144_" class="st1" d="M473.4,117.3c-0.7,0-1.3-0.6-1.3-1.3V97.6c0-0.7,0.6-1.3,1.3-1.3h29.9
											c0.7,0,1.3,0.6,1.3,1.3V116c0,0.7-0.6,1.3-1.3,1.3H473.4z"/>
									</g>
									<path id="XMLID_140_" class="st8" d="M503.3,96.8c0.4,0,0.8,0.4,0.8,0.8V116c0,0.4-0.4,0.8-0.8,0.8h-29.9
										c-0.4,0-0.8-0.4-0.8-0.8V97.6c0-0.4,0.4-0.8,0.8-0.8H503.3 M503.3,95.8h-29.9c-1,0-1.8,0.8-1.8,1.8V116
										c0,1,0.8,1.8,1.8,1.8h29.9c1,0,1.8-0.8,1.8-1.8V97.6C505.1,96.6,504.3,95.8,503.3,95.8L503.3,95.8z"/>
								</g>
							</g>
						</g>
						<g id="XMLID_117_">
							<g id="XMLID_118_">
								<g id="XMLID_127_">
									<g id="XMLID_132_">
										<path id="XMLID_133_" class="st8" d="M507.2,117.6c0.2,0,0.4,0.1,0.5,0.2c0.1,0.2,0.2,0.4,0.2,0.6c0,0.2-0.7,4-5.5,4
											h-28.2c-4.1,0-5.3-2.9-5.5-4c0-0.2,0-0.4,0.2-0.6c0.1-0.2,0.3-0.2,0.5-0.2H507.2 M486,120.2h4.7v-0.3H486V120.2
											 M507.2,117.4h-37.8c-0.3,0-0.5,0.1-0.7,0.3c-0.2,0.2-0.3,0.5-0.2,0.8c0.2,1.2,1.5,4.2,5.7,4.2h28.2c5,0,5.7-4,5.7-4.2
											c0-0.3,0-0.5-0.2-0.8C507.8,117.5,507.5,117.4,507.2,117.4L507.2,117.4z"/>
									</g>
									<path id="XMLID_128_" class="st41" d="M507.2,118.1c0.1,0,0.1,0,0.1,0.1s0.1,0.1,0,0.2c0,0-0.6,3.5-5,3.5h-28.2
										c-4.4,0-5-3.5-5-3.5c0-0.1,0-0.1,0-0.2c0,0,0.1-0.1,0.1-0.1H507.2 M485.5,120.7h5.7v-1.3h-5.7V120.7 M507.2,117.1h-37.8
										c-0.3,0-0.7,0.2-0.9,0.4c-0.2,0.3-0.3,0.6-0.3,1c0.2,1.5,1.8,4.4,6,4.4h28.2c5.2,0,6-4.2,6-4.4c0.1-0.4,0-0.7-0.3-1
										C507.9,117.3,507.6,117.1,507.2,117.1L507.2,117.1z"/>
								</g>
								<g id="XMLID_119_">
									<g id="XMLID_123_">
										<path id="XMLID_124_" class="st8" d="M503.3,96.3c0.7,0,1.3,0.6,1.3,1.3V116c0,0.7-0.6,1.3-1.3,1.3h-29.9
											c-0.7,0-1.3-0.6-1.3-1.3V97.6c0-0.7,0.6-1.3,1.3-1.3H503.3 M503.3,96.1h-29.9c-0.8,0-1.5,0.7-1.5,1.5V116
											c0,0.8,0.7,1.5,1.5,1.5h29.9c0.8,0,1.5-0.7,1.5-1.5V97.6C504.8,96.8,504.1,96.1,503.3,96.1L503.3,96.1z"/>
									</g>
									<path id="XMLID_120_" class="st41" d="M503.3,96.8c0.4,0,0.8,0.4,0.8,0.8V116c0,0.4-0.4,0.8-0.8,0.8h-29.9
										c-0.4,0-0.8-0.4-0.8-0.8V97.6c0-0.4,0.4-0.8,0.8-0.8H503.3 M503.3,95.8h-29.9c-1,0-1.8,0.8-1.8,1.8V116
										c0,1,0.8,1.8,1.8,1.8h29.9c1,0,1.8-0.8,1.8-1.8V97.6C505.1,96.6,504.3,95.8,503.3,95.8L503.3,95.8z"/>
								</g>
							</g>
						</g>
					</g>
					<rect id="XMLID_278_" x="475.3" y="99.6" class="st8" width="26" height="14.5"/>
				</g>
				<polygon id="XMLID_276_" class="st8" points="452.2,112.9 453.4,111.1 455.6,117 449.3,117.3 450.5,115.5 				"/>
				<polygon id="XMLID_275_" class="st8" points="478.2,84.3 477,86.1 474.7,80.1 481.1,79.8 479.9,81.7 				"/>
			</g>
		</g>
		<g id="XMLID_81_">
			<g id="XMLID_100_">
				<g id="XMLID_263_">
					<g id="XMLID_264_">
						<g id="XMLID_268_">
							<path id="XMLID_13_" class="st8" d="M548.8,156.9c1.6,0,2.9,1.3,2.9,2.9v57.7v4.5c0,1.6-1.3,2.9-2.9,2.9h-42.3
								c-1.6,0-2.9-1.3-2.9-2.9v-4.5v-57.7c0-1.6,1.3-2.9,2.9-2.9H548.8 M548.8,155.9h-42.3c-2.1,0-3.9,1.7-3.9,3.9v57.7v4.5
								c0,2.1,1.7,3.9,3.9,3.9h42.3c2.1,0,3.9-1.7,3.9-3.9v-4.5v-57.7C552.7,157.6,550.9,155.9,548.8,155.9L548.8,155.9z"/>
						</g>
						<circle id="XMLID_267_" class="st8" cx="527.6" cy="219.9" r="1.9"/>
						<rect id="XMLID_266_" x="506.6" y="166" class="st8" width="42" height="48.6"/>
						<line id="XMLID_265_" class="st42" x1="523.5" y1="161.5" x2="531.8" y2="161.5"/>
					</g>
				</g>
				<g id="XMLID_246_">
					<path id="XMLID_25_" class="st1" d="M512.9,205.6l1.8-3.9l2.6-2.1l0.3,0.3l11.8-11.8l-0.8-0.8l0.5-0.7c0.3-0.5,0.5-1.1,0.4-1.6
						l-0.1-0.5l9.8-9.8c0.6-0.6,1.4-0.9,2.2-0.9c0.8,0,1.6,0.3,2.2,0.9l2,2c1.2,1.2,1.2,3.2,0,4.4l-9.8,9.8l-0.5-0.1
						c-0.1,0-0.2,0-0.3,0c-0.5,0-0.9,0.1-1.3,0.4l-0.7,0.5l-0.8-0.8l-11.8,11.8l0.3,0.3l-2.1,2.6l-3.9,1.8L512.9,205.6z"/>
					<g id="XMLID_20_">
						<path id="XMLID_22_" class="st8" d="M541.3,174.7c0.6,0,1.1,0.2,1.5,0.6l2,2c0.8,0.8,0.8,2.2,0,3l-9.5,9.5c-0.1,0-0.2,0-0.4,0
							c-0.7,0-1.3,0.2-1.9,0.6l-1-0.9l-13.2,13.2l0.3,0.3l-1.4,1.7l-3.1,1.4l-0.7-0.7l1.4-3.1l1.7-1.4l0.3,0.3l13.2-13.2l-1-0.9
							c0.5-0.7,0.7-1.5,0.6-2.3l9.5-9.5C540.3,174.9,540.8,174.7,541.3,174.7C541.3,174.7,541.3,174.7,541.3,174.7 M541.3,172.7
							L541.3,172.7c-1.1,0-2.1,0.4-2.9,1.2l-9.5,9.5l-0.7,0.7l0.1,1c0,0.3-0.1,0.7-0.2,0.9l-0.9,1.4l0.7,0.7l-10.4,10.4l-0.2-0.2
							l-1.4,1.1l-1.7,1.4l-0.4,0.3l-0.2,0.4l-1.4,3.1l-0.6,1.3l1,1l0.7,0.7l1,1l1.3-0.6l3.1-1.4l0.4-0.2l0.3-0.4l1.4-1.7l1.1-1.4
							l-0.2-0.2l10.4-10.4l0.7,0.7l1.4-0.9c0.2-0.2,0.5-0.2,0.8-0.2c0,0,0.1,0,0.1,0l1,0.1l0.7-0.7l9.5-9.5c1.6-1.6,1.6-4.2,0-5.8
							l-2-2C543.5,173.1,542.4,172.7,541.3,172.7L541.3,172.7z"/>
					</g>
				</g>
				<g id="XMLID_243_">
					<polygon id="XMLID_21_" class="st0" points="528.3,190.5 517.5,201.3 517.2,200.9 515.5,202.3 514.1,205.4 514.8,206.1 
						517.9,204.7 519.3,203 518.9,202.7 528.3,193.3 					"/>
				</g>
				<g id="XMLID_222_">
					<g id="XMLID_42_">
						<path id="XMLID_43_" class="st1" d="M538.6,207c-1.1,0-2.2-0.4-3-1.3l-15.9-15.9c-0.6,0.1-1.2,0.2-1.9,0.2
							c-2.1,0-4.1-0.8-5.6-2.3c-2-2-2.8-5-2.1-7.7l0.5-1.7l4.8,4.8l2.8-0.7l0.7-2.8l-4.8-4.8l1.7-0.5c0.7-0.2,1.4-0.3,2.1-0.3
							c2.1,0,4.1,0.8,5.6,2.3c1.9,1.9,2.7,4.6,2.2,7.2l16,16c1.7,1.7,1.7,4.4,0,6.1C540.8,206.5,539.7,207,538.6,207z M538.9,202.9
							c-0.1,0-0.3,0.1-0.3,0.3c0,0.1,0.1,0.3,0.3,0.3c0.1,0,0.2,0,0.2-0.1c0,0,0.1-0.1,0.1-0.2C539.1,203.1,539,202.9,538.9,202.9z"
							/>
					</g>
					<g id="XMLID_37_">
						<path id="XMLID_38_" class="st8" d="M517.8,175.1c1.8,0,3.6,0.7,4.9,2c1.8,1.8,2.4,4.5,1.8,6.8l16.4,16.4
							c1.3,1.3,1.3,3.4,0,4.7c-0.6,0.6-1.5,1-2.3,1c-0.8,0-1.7-0.3-2.3-1L520,188.8l0,0c-0.7,0.2-1.4,0.3-2.2,0.3
							c-1.8,0-3.6-0.7-4.9-2c-1.8-1.8-2.4-4.4-1.8-6.8l4,3.9l3.9-1l1-3.9l-4-4C516.6,175.2,517.2,175.1,517.8,175.1 M538.9,204.5
							c0.7,0,1.3-0.6,1.3-1.3c0-0.7-0.6-1.3-1.3-1.3c-0.7,0-1.3,0.6-1.3,1.3C537.6,203.9,538.2,204.5,538.9,204.5 M517.8,173.1
							c-0.8,0-1.6,0.1-2.4,0.3l-3.3,0.9l2.4,2.4l3.1,3.1l-0.4,1.6l-1.6,0.4l-3.1-3.1l-2.4-2.4l-0.9,3.3c-0.8,3.1,0.1,6.4,2.3,8.7
							c1.7,1.7,3.9,2.6,6.3,2.6c0.5,0,1,0,1.6-0.1l15.5,15.5c1,1,2.3,1.6,3.7,1.6c1.4,0,2.7-0.6,3.7-1.5c2.1-2.1,2.1-5.4,0-7.5
							l-15.6-15.6c0.4-2.8-0.5-5.6-2.5-7.6C522.4,174.1,520.2,173.1,517.8,173.1L517.8,173.1z"/>
					</g>
				</g>
				<g id="XMLID_102_">
					<path id="XMLID_19_" class="st0" d="M528.3,187.7l-3.8-3.8c0.7-2.3,0.1-5-1.8-6.8c-1.8-1.8-4.4-2.4-6.8-1.8l4,4l-1,3.9l-3.9,1
						l-4-3.9c-0.6,2.3,0,4.9,1.8,6.8c1.9,1.9,4.7,2.5,7.1,1.7l0,0l8.3,8.3V187.7z"/>
				</g>
			</g>
		</g>
	</g>
</g>
</svg>
